<svg width="24" height="18" viewBox="0 0 24 18" fill="none" xmlns="http://www.w3.org/2000/svg">
<path fill-rule="evenodd" clip-rule="evenodd" d="M8.69752 0.137594C8.65231 0.143923 8.43654 0.174117 8.21803 0.204695C6.30472 0.472276 4.45899 1.18583 3.35532 2.08458C3.05286 2.3309 2.81386 2.68013 2.4868 3.35366C1.45004 5.4888 0.531996 8.72419 0.193314 11.4364C0.0739354 12.3924 0.0334119 12.8954 0.00784836 13.738C-0.0113311 14.3704 -0.0110297 14.3718 0.197342 14.697C1.02554 15.9892 2.73761 17.0265 4.98709 17.5989C5.47819 17.7239 6.11796 17.8359 6.49777 17.8634C6.74949 17.8816 6.77193 17.8787 6.91057 17.8109C7.04535 17.745 7.08622 17.6988 7.41688 17.2387C8.27256 16.048 8.37341 15.9162 8.42629 15.919C8.4549 15.9205 8.63423 15.9545 8.82479 15.9945C10.7003 16.3883 12.9332 16.409 14.8898 16.0508C15.1761 15.9984 15.4577 15.9428 15.5156 15.9273C15.6058 15.9031 15.6264 15.9062 15.6586 15.9487C15.6793 15.9761 15.9705 16.3786 16.3057 16.8434C16.6409 17.3081 16.9501 17.7177 16.9928 17.7537C17.1273 17.8669 17.2603 17.8869 17.6364 17.8506C19.111 17.7083 21.0069 17.0493 22.2053 16.2624C22.9304 15.7864 23.5629 15.1443 23.9125 14.5292L24 14.3752V13.926C24 12.6513 23.7917 10.9085 23.4399 9.24058C22.8301 6.34873 21.7361 3.36966 20.892 2.30208C20.7491 2.12133 20.2029 1.73464 19.6537 1.4255C18.5726 0.816958 16.8781 0.311387 15.3633 0.145403C15.0717 0.113455 15.0686 0.113756 14.9249 0.184666C14.8383 0.227354 14.7537 0.295331 14.7143 0.353747C14.6379 0.466851 14.4527 0.991848 14.4063 1.22628L14.3746 1.38675L14.276 1.37007C14.073 1.33574 13.288 1.24439 12.9444 1.21512C12.1455 1.14701 10.9699 1.19255 10.0456 1.32738C9.83771 1.35771 9.65745 1.37629 9.6451 1.36864C9.63271 1.361 9.61515 1.30823 9.60605 1.25137C9.57832 1.07824 9.40078 0.553624 9.32082 0.408709C9.20602 0.200585 8.97253 0.0990156 8.69752 0.137594ZM8.5525 1.42256C8.57565 1.50575 8.58694 1.57827 8.57757 1.58375C8.5682 1.58921 8.51737 1.60252 8.46463 1.61332C8.06208 1.69587 7.09461 2.00439 6.57991 2.21435C6.13725 2.39494 5.64744 2.63156 5.29966 2.8328C5.13408 2.92862 4.96374 3.02476 4.92108 3.04644C4.73674 3.14017 4.60133 3.35347 4.60133 3.55012C4.60133 3.66577 4.73449 3.89483 4.83949 3.95968C4.96377 4.03651 5.13022 4.06689 5.24826 4.03432C5.29914 4.02026 5.43767 3.94866 5.55611 3.87521C5.80043 3.72366 6.46503 3.38556 6.75217 3.2667C7.94549 2.7728 9.10771 2.48324 10.6566 2.29394C11.2178 2.22533 12.7716 2.2249 13.3437 2.29315C15.3919 2.5376 17.0911 3.06003 18.4078 3.85019C18.7064 4.02933 18.8228 4.06654 18.992 4.03681C19.3725 3.96995 19.5329 3.43024 19.2509 3.16603C18.9798 2.9121 17.5768 2.23816 16.7115 1.94627C16.3694 1.83089 15.5442 1.60011 15.4737 1.60011C15.4147 1.60011 15.4129 1.57175 15.4615 1.40832C15.5086 1.25003 15.5244 1.24825 16.0742 1.33952C16.8755 1.47254 17.8083 1.73363 18.4791 2.01263C18.9889 2.22473 19.8222 2.70775 20.0034 2.89626C20.2151 3.11644 20.6395 3.88436 20.9226 4.55923C22.0345 7.21041 22.8365 10.7896 22.9269 13.5038L22.9451 14.0504L22.8184 14.2298C22.0437 15.327 20.3664 16.253 18.4241 16.656C18.0006 16.7439 17.5981 16.8025 17.5656 16.781C17.5181 16.7496 16.7317 15.6744 16.7287 15.6367C16.7265 15.6103 16.8564 15.5502 17.1279 15.4519C18.1747 15.0728 19.0771 14.598 19.8124 14.0394C19.996 13.8999 20.063 13.7892 20.0765 13.6028C20.0989 13.2923 19.8819 13.053 19.5779 13.053C19.4057 13.053 19.3388 13.0845 19.0565 13.2989C18.5999 13.6455 17.8414 14.0615 17.1992 14.3177C16.7513 14.4963 16.0349 14.7234 15.826 14.753C15.7205 14.768 15.5962 14.8034 15.5497 14.8318C15.4166 14.913 14.5929 15.0733 13.8623 15.1602C12.6115 15.3089 11.0091 15.287 9.77979 15.1043C9.25959 15.027 8.61045 14.8936 8.46463 14.834C8.39681 14.8063 8.26995 14.7773 8.18274 14.7696C7.89415 14.7439 6.78724 14.3354 6.13838 14.0149C5.6767 13.787 5.263 13.5359 4.92163 13.2766C4.6689 13.0847 4.58196 13.0433 4.43535 13.045C4.1165 13.0488 3.89153 13.3057 3.92274 13.6304C3.93953 13.8053 4.02408 13.9124 4.31504 14.1275C4.9812 14.6199 5.81761 15.0561 6.77957 15.4127C7.02069 15.5021 7.24024 15.5843 7.26747 15.5954C7.3103 15.6129 7.28273 15.6619 7.06365 15.9577C6.92432 16.1459 6.72579 16.414 6.62247 16.5535C6.46711 16.7632 6.42418 16.805 6.3742 16.7947C6.34096 16.7879 6.25214 16.7745 6.17679 16.7649C5.94833 16.7359 5.26067 16.5916 4.99862 16.5176C4.07938 16.258 3.27283 15.9232 2.67341 15.5524C2.07794 15.184 1.55714 14.7267 1.23139 14.286L1.05924 14.0531L1.07658 13.5462C1.14459 11.5595 1.6067 8.96084 2.26294 6.87447C2.54006 5.99347 2.77295 5.31981 2.94565 4.89975C3.00097 4.76522 3.0698 4.59534 3.09859 4.5223C3.26726 4.09468 3.69691 3.29865 3.9149 3.00991C4.18475 2.65249 5.23206 2.08412 6.23244 1.7522C6.8416 1.55008 8.0678 1.27894 8.39846 1.27324L8.51041 1.27132L8.5525 1.42256ZM8.31393 7.4536C7.37572 7.60178 6.61805 8.33301 6.35162 9.34747C6.2797 9.62124 6.25362 10.171 6.29811 10.4752C6.42431 11.3384 6.97416 12.1093 7.70873 12.4531C8.02202 12.5997 8.29045 12.6496 8.695 12.6364C9.00664 12.6263 9.08511 12.6137 9.29288 12.5409C10.2552 12.2038 10.8992 11.2792 10.9495 10.1624C10.9729 9.64256 10.8848 9.23302 10.6482 8.76184C10.3243 8.11713 9.79711 7.68209 9.10851 7.4915C8.98938 7.45854 8.44665 7.43264 8.31393 7.4536ZM14.9719 7.47903C14.3127 7.60866 13.6966 8.09784 13.3588 8.75978C12.9542 9.55277 12.9479 10.4855 13.3416 11.2857C13.6064 11.8237 13.9525 12.1793 14.4514 12.4258C14.7801 12.5883 15.012 12.641 15.3966 12.641C15.7604 12.641 16.0077 12.5888 16.2942 12.4514C16.5877 12.3107 16.733 12.209 16.9577 11.9873C17.7811 11.1748 17.9799 9.82874 17.4345 8.75978C16.9441 7.79883 15.9568 7.28535 14.9719 7.47903ZM9.11133 8.61257C10.0507 9.07805 10.199 10.5506 9.3825 11.306C9.33729 11.3478 9.20841 11.4282 9.09607 11.4846C8.89877 11.5837 8.88208 11.5871 8.60288 11.5871C8.33237 11.5871 8.30256 11.5815 8.13583 11.4987C7.85206 11.3579 7.60925 11.1013 7.46754 10.7926C7.37129 10.5829 7.338 10.4346 7.3223 10.146C7.29353 9.61716 7.4431 9.19406 7.77762 8.85809C8.05892 8.57555 8.32229 8.46825 8.68261 8.48938C8.85219 8.49932 8.92502 8.52026 9.11133 8.61257ZM15.6213 8.50809C16.1085 8.61136 16.4968 9.02533 16.6461 9.60069C16.7072 9.83608 16.7067 10.2698 16.645 10.5025C16.5272 10.9465 16.2307 11.3284 15.8713 11.4986C15.6975 11.5809 15.6641 11.5871 15.3966 11.5871C15.1286 11.5871 15.096 11.581 14.92 11.4977C14.7863 11.4343 14.6782 11.3541 14.5501 11.2228C14.2445 10.9097 14.102 10.5384 14.1013 10.0528C14.1004 9.38944 14.3879 8.87031 14.907 8.5981C15.1142 8.48946 15.3772 8.45633 15.6213 8.50809Z" fill="#3F6870"/>
</svg>
