<svg width="129" height="49" viewBox="0 0 129 49" fill="none" xmlns="http://www.w3.org/2000/svg">
<path d="M25.8179 0.736927L18.409 4.92867C15.7309 6.44383 15.4927 10.2112 17.9585 12.0516L25.5231 17.6979C27.0639 18.8479 26.9155 21.2018 25.2425 22.1492L18.4163 26.0149C15.7367 27.5325 15.5023 31.3041 17.9735 33.1417L25.1757 38.4971C25.923 39.0527 26.3634 39.9291 26.3634 40.8603V41.0808C26.3634 41.7588 27.0954 42.1841 27.6844 41.8484L35.1322 37.6034C37.8116 36.0762 38.0313 32.2964 35.5467 30.4692L27.9874 24.9096C26.4355 23.7682 26.5715 21.4076 28.2443 20.452L35.1459 16.5094C37.8211 14.9811 38.04 11.2062 35.5592 9.37904L28.3349 4.05794C27.5813 3.50288 27.1365 2.62267 27.1365 1.68673V1.50589C27.1365 0.829193 26.4069 0.403707 25.8179 0.736927Z" fill="white"/>
<path d="M9.57177 7.3924L2.16284 11.5841C-0.515215 13.0993 -0.753482 16.8666 1.71234 18.7071L9.277 24.3534C10.8178 25.5034 10.6694 27.8572 8.9964 28.8047L2.1702 32.6704C-0.509462 34.188 -0.7438 37.9596 1.72741 39.7971L8.92954 45.1525C9.67682 45.7082 10.1173 46.5846 10.1173 47.5158V47.7363C10.1173 48.4142 10.8493 48.8396 11.4383 48.5039L18.8861 44.2588C21.5655 42.7316 21.7851 38.9519 19.3006 37.1246L11.7413 31.5651C10.1894 30.4237 10.3254 28.0631 11.9981 27.1075L18.8997 23.1649C21.575 21.6366 21.7938 17.8617 19.3131 16.0345L12.0888 10.7134C11.3352 10.1584 10.8903 9.27814 10.8903 8.3422V8.16137C10.8903 7.48467 10.1607 7.05918 9.57177 7.3924Z" fill="white"/>
<path d="M64.9388 37.7371C64.8274 37.7371 64.7218 37.6881 64.6498 37.6032L54.8787 26.0727C54.6507 25.8036 54.211 25.9648 54.211 26.3175V37.3584C54.211 37.5675 54.0414 37.7371 53.8322 37.7371H50.1177C49.9086 37.7371 49.739 37.5675 49.739 37.3584V10.8525C49.739 10.6433 49.9086 10.4738 50.1177 10.4738H53.8322C54.0414 10.4738 54.211 10.6433 54.211 10.8525V22.1168C54.211 22.4709 54.6536 22.6313 54.8805 22.3595L64.6889 10.6098C64.7609 10.5236 64.8674 10.4738 64.9797 10.4738H69.5703C69.8968 10.4738 70.0703 10.8593 69.8537 11.1037L58.5375 23.8714C58.4096 24.0158 58.4106 24.2333 58.5399 24.3765L70.0368 37.1045C70.2568 37.3481 70.084 37.7371 69.7557 37.7371H64.9388Z" fill="white"/>
<path d="M91.16 26.4003C91.16 27.0814 91.1231 27.7071 91.0492 28.2774C91.0254 28.4619 90.8662 28.597 90.6801 28.597H74.8967C74.6762 28.597 74.5014 28.7849 74.5292 29.0036C74.7244 30.542 75.3514 31.7925 76.4103 32.7552C77.561 33.8012 78.9732 34.3243 80.6469 34.3243C82.968 34.3243 84.6319 33.3873 85.6387 31.5132C85.7069 31.3862 85.8378 31.3037 85.982 31.3037H90.0483C90.3062 31.3037 90.4885 31.556 90.3957 31.7966C89.7143 33.5631 88.583 35.0333 87.0018 36.2072C85.302 37.4625 83.1837 38.0902 80.6469 38.0902C78.5809 38.0902 76.7241 37.6325 75.0766 36.7172C73.4552 35.7757 72.1737 34.4681 71.2323 32.7944C70.3169 31.0945 69.8593 29.1331 69.8593 26.9102C69.8593 24.6873 70.3039 22.739 71.193 21.0653C72.1083 19.3654 73.3767 18.0578 74.9981 17.1425C76.6457 16.2272 78.5286 15.7695 80.6469 15.7695C82.6868 15.7695 84.5043 16.2141 86.0996 17.1033C87.6949 17.9924 88.9371 19.2477 89.8262 20.8691C90.7154 22.4644 91.16 24.3081 91.16 26.4003ZM86.1213 25.633C86.3272 25.6254 86.4902 25.4546 86.4768 25.2489C86.3755 23.688 85.7921 21.9463 84.7266 21.026C83.5759 20.0323 82.1507 19.5354 80.4508 19.5354C78.9078 19.5354 77.5872 20.0323 76.4888 21.026C75.3329 22.0718 74.8259 24.0154 74.5876 25.6202C74.5533 25.8511 74.7391 26.0533 74.9724 26.0447L86.1213 25.633Z" fill="white"/>
<path d="M110.437 20.1837C111.259 18.685 112.229 17.4694 113.536 16.7894C114.844 16.1095 116.321 15.7695 117.969 15.7695C119.852 15.7695 121.565 16.2402 123.108 17.1817C124.677 18.097 125.906 19.3916 126.795 21.0653C127.684 22.739 128.129 24.6612 128.129 26.8318C128.129 29.0024 127.684 30.9507 126.795 32.6767C125.906 34.3766 124.677 35.7103 123.108 36.678C121.565 37.6194 119.852 38.0902 117.969 38.0902C116.321 38.0902 114.857 37.7633 113.576 37.1095C112.294 36.4295 111.059 35.1508 110.437 33.7152V47.6361C110.437 47.8452 110.268 48.0148 110.059 48.0148H106.344C106.135 48.0148 105.965 47.8452 105.965 47.6361V16.5013C105.965 16.2921 106.135 16.1226 106.344 16.1226H110.059C110.268 16.1226 110.437 16.2921 110.437 16.5013V20.1837ZM123.579 26.8318C123.579 25.3411 123.265 24.0597 122.637 22.9874C122.036 21.8891 121.225 21.0653 120.205 20.5161C119.211 19.9407 118.139 19.6531 116.988 19.6531C115.864 19.6531 114.792 19.9407 113.772 20.5161C112.778 21.0914 111.967 21.9283 111.34 23.0267C110.738 24.125 110.437 25.4196 110.437 26.9102C110.437 28.4009 110.738 29.7085 111.34 30.833C111.967 31.9314 112.778 32.7682 113.772 33.3436C114.792 33.9189 115.864 34.2066 116.988 34.2066C118.139 34.2066 119.211 33.9189 120.205 33.3436C121.225 32.7421 122.036 31.8791 122.637 30.7545C123.265 29.63 123.579 28.3224 123.579 26.8318Z" fill="white"/>
<path d="M99.2517 38.0527C97.1364 38.0527 96.6193 37.5621 96.0665 37.0083C95.2708 36.2378 94.873 34.9757 94.873 33.2221V10.2788C94.873 10.0697 95.0426 9.9001 95.2518 9.9001H98.7108C98.92 9.9001 99.0896 10.0563 99.0896 10.2654C99.0896 13.1135 99.0896 31.6671 99.0896 32.3028C99.0896 32.7897 99.3432 33.0841 99.4874 33.2286C99.6316 33.3731 99.846 33.6074 100.681 33.5842C101.184 33.5842 101.656 33.5842 102.132 33.5842C102.341 33.5842 102.511 33.7538 102.511 33.963V37.674C102.511 37.8832 102.341 38.0527 102.132 38.0527C101.67 38.0527 101.241 38.0527 100.843 38.0527C100.338 38.0527 99.8617 38.0527 99.2517 38.0527Z" fill="white"/>
</svg>
