<svg width="1920" height="301" viewBox="0 0 1920 301" fill="none" xmlns="http://www.w3.org/2000/svg">
<g clip-path="url(#clip0_2082_14143)">
<rect width="1920" height="301" fill="#B6DFDF"/>
<path opacity="0.5" d="M155.55 109.494L0 64.4601V305H1920V-65L1881.67 13.3006C1856.47 64.7837 1800.21 93.3369 1743.78 83.2807L1720.59 79.1486C1671.62 70.4223 1622.7 94.723 1600.07 139.016C1573.85 190.338 1513.22 213.723 1459.33 193.301L1415.52 176.701C1376.65 161.973 1333.06 166.964 1298.53 190.097L1219.86 242.794C1178.98 270.181 1126.04 271.802 1083.56 246.966L966.305 178.422C934.073 159.579 895.236 155.694 859.91 167.779L646.28 240.861C615.329 251.449 581.504 249.828 551.707 236.33L501.822 213.731C467.038 197.974 426.657 200.791 394.398 221.226C338.136 256.866 263.418 236.547 232.954 177.322L229.293 170.204C214.109 140.685 187.435 118.725 155.55 109.494Z" fill="#075A5A"/>
<path d="M1162.08 201.637C1167.2 194.577 1178.36 198.188 1178.37 206.906L1178.4 232.17C1178.41 236.069 1180.92 239.521 1184.63 240.721L1208.67 248.497C1216.97 251.181 1216.98 262.911 1208.69 265.616L1184.68 273.454C1180.97 274.664 1178.46 278.123 1178.47 282.022L1178.5 307.286C1178.51 316.004 1167.36 319.644 1162.23 312.597L1147.35 292.177C1145.05 289.026 1140.99 287.711 1137.28 288.921L1113.27 296.759C1104.98 299.464 1098.07 289.982 1103.19 282.922L1118.01 262.464C1120.3 259.307 1120.29 255.035 1118 251.884L1103.12 231.464C1097.99 224.417 1104.87 214.918 1113.16 217.602L1137.2 225.378C1140.91 226.578 1144.97 225.253 1147.26 222.095L1162.08 201.637Z" fill="#F28F57"/>
<path d="M156.382 163.165L0 120.888V301H1920V0L1882.26 72.0013C1856.51 121.127 1802.13 148.172 1747.42 139.067L1716.84 133.979C1669.72 126.139 1622.81 148.954 1599.88 190.852C1573.44 239.182 1515.84 261.194 1463.9 242.816L1403.34 221.387C1371.45 210.104 1336.4 211.855 1305.8 226.259L1199.79 276.152C1166.25 291.941 1127.51 292.463 1093.55 277.584L959.969 219.057C931.339 206.513 899.117 204.841 869.342 214.352L643.408 286.525C614.17 295.865 582.554 294.426 554.285 282.468L501.07 259.957C466.49 245.329 427.02 247.977 394.704 267.093C337.22 301.095 262.493 279.902 230.269 221.402C214.58 192.92 187.773 171.651 156.382 163.165Z" fill="#075A5A"/>
</g>
<defs>
<clipPath id="clip0_2082_14143">
<rect width="1920" height="301" fill="white"/>
</clipPath>
</defs>
</svg>