<svg width="1920" height="301" viewBox="0 0 1920 301" fill="none" xmlns="http://www.w3.org/2000/svg">
<g clip-path="url(#clip0_2082_14127)">
<rect width="1920" height="301" fill="#D8F0F0"/>
<path d="M1764.45 109.494L1920 64.4601V305H-0.00012207V-65L38.3271 13.3006C63.5276 64.7837 119.792 93.3369 176.222 83.2807L199.41 79.1486C248.378 70.4223 297.297 94.723 319.927 139.016C346.15 190.338 406.779 213.723 460.672 193.301L504.478 176.701C543.347 161.973 586.94 166.964 621.473 190.097L700.139 242.794C741.023 270.181 793.961 271.802 836.444 246.966L953.695 178.422C985.927 159.579 1024.76 155.694 1060.09 167.779L1273.72 240.861C1304.67 251.449 1338.5 249.828 1368.29 236.33L1418.18 213.731C1452.96 197.974 1493.34 200.791 1525.6 221.226C1581.86 256.866 1656.58 236.547 1687.05 177.322L1690.71 170.204C1705.89 140.685 1732.56 118.725 1764.45 109.494Z" fill="#D1EDED"/>
<path d="M1920 120.888L1763.62 163.165C1732.23 171.651 1705.42 192.92 1689.73 221.402C1657.51 279.902 1582.78 301.095 1525.3 267.093C1492.98 247.977 1453.51 245.329 1418.93 259.957L1365.71 282.468C1337.45 294.426 1305.83 295.865 1276.59 286.525L1056.83 216.323C1023.38 205.639 987.019 209.112 956.201 225.935L832.937 293.223C827.381 296.256 821.662 298.848 815.826 301H726.962C718.781 297.983 710.842 294.108 703.281 289.378L618.969 236.639C585.774 215.875 544.921 211.386 508.01 224.447L456.096 242.816C404.159 261.194 346.561 239.182 320.116 190.852C297.192 148.954 250.275 126.139 203.164 133.979L172.584 139.067C117.871 148.172 63.4944 121.127 37.7429 72.0013L-0.00012207 0V301H726.962C755.549 311.541 787.092 311.598 815.826 301H1920V120.888Z" fill="#B6DFDF"/>
</g>
<defs>
<clipPath id="clip0_2082_14127">
<rect width="1920" height="301" fill="white"/>
</clipPath>
</defs>
</svg>
