<svg width="20" height="21" viewBox="0 0 20 21" fill="none" xmlns="http://www.w3.org/2000/svg">
<path d="M16.3609 8.41931C16.3609 8.08794 16.0923 7.81931 15.7609 7.81931C15.4295 7.81931 15.1609 8.08794 15.1609 8.41931H16.3609ZM3.2854 13.8254C3.08995 13.5578 2.71458 13.4993 2.44699 13.6948C2.17939 13.8902 2.12091 14.2656 2.31636 14.5332L3.2854 13.8254ZM2.69884 13.5881C2.37228 13.6444 2.1532 13.9547 2.20951 14.2813C2.26581 14.6078 2.57617 14.8269 2.90273 14.7706L2.69884 13.5881ZM4.96078 13.4593L5.15141 14.0282C5.34787 13.9624 5.49647 13.7999 5.54446 13.5983C5.59246 13.3968 5.53306 13.1847 5.38736 13.0374L4.96078 13.4593ZM4.24078 4.81934L4.76925 4.53521C4.67115 4.35276 4.48589 4.23382 4.27917 4.22057C4.07245 4.20731 3.87351 4.30163 3.75293 4.47006L4.24078 4.81934ZM8.56078 8.41934L8.41908 9.00236C8.59457 9.04501 8.77993 9.00635 8.92373 8.89711C9.06753 8.78787 9.15448 8.61966 9.16045 8.43917L8.56078 8.41934ZM15.0408 6.25934L14.5398 6.58955C14.6508 6.75797 14.8391 6.85934 15.0408 6.85934V6.25934ZM17.2008 6.25934L17.7 6.59216C17.8228 6.40804 17.8342 6.17132 17.7298 5.97622C17.6254 5.78113 17.4221 5.65934 17.2008 5.65934V6.25934ZM15.2616 8.08652C15.0777 8.36223 15.1522 8.73475 15.428 8.91857C15.7037 9.10238 16.0762 9.02787 16.26 8.75216L15.2616 8.08652ZM15.1609 8.41931C15.1609 10.8289 14.473 12.8361 13.241 14.2323C12.0172 15.6193 10.2083 16.4593 7.84088 16.4593V17.6593C10.5134 17.6593 12.6645 16.6994 14.1408 15.0263C15.6088 13.3625 16.3609 11.0497 16.3609 8.41931H15.1609ZM7.84088 16.4593C6.51654 16.4593 5.6308 16.1173 4.96455 15.6458C4.27998 15.1614 3.79106 14.5177 3.2854 13.8254L2.31636 14.5332C2.8163 15.2177 3.40738 16.014 4.27141 16.6254C5.15376 17.2498 6.28522 17.6593 7.84088 17.6593V16.4593ZM2.90273 14.7706C2.92173 14.7673 2.93645 14.7638 2.94152 14.7626C2.94845 14.7609 2.95405 14.7595 2.95741 14.7586C2.96413 14.7568 2.9696 14.7552 2.97244 14.7543C2.97848 14.7526 2.98398 14.7509 2.98754 14.7497C2.99519 14.7474 3.00413 14.7445 3.01319 14.7416C3.03178 14.7356 3.05722 14.7273 3.08783 14.7172C3.14936 14.6969 3.23543 14.6684 3.33736 14.6345C3.54141 14.5667 3.81104 14.4767 4.07966 14.3869C4.34835 14.2971 4.61628 14.2074 4.81702 14.1402C4.9174 14.1066 5.00099 14.0786 5.05949 14.059C5.08874 14.0492 5.11171 14.0415 5.12738 14.0363C5.13521 14.0337 5.14122 14.0317 5.14527 14.0303C5.14729 14.0296 5.14883 14.0291 5.14986 14.0288C5.15037 14.0286 5.15076 14.0285 5.15102 14.0284C5.15115 14.0283 5.15125 14.0283 5.15131 14.0283C5.15135 14.0283 5.15137 14.0283 5.15139 14.0283C5.1514 14.0283 5.15141 14.0282 4.96078 13.4593C4.77015 12.8904 4.77014 12.8904 4.77013 12.8904C4.77011 12.8904 4.77009 12.8904 4.77005 12.8905C4.76999 12.8905 4.76989 12.8905 4.76976 12.8906C4.76951 12.8906 4.76912 12.8908 4.76861 12.8909C4.76758 12.8913 4.76605 12.8918 4.76403 12.8925C4.76 12.8938 4.754 12.8958 4.74618 12.8985C4.73053 12.9037 4.70758 12.9114 4.67835 12.9212C4.6199 12.9408 4.53637 12.9687 4.43606 13.0023C4.23543 13.0695 3.96771 13.1591 3.6993 13.2488C3.43082 13.3385 3.1619 13.4283 2.95877 13.4958C2.85712 13.5296 2.77244 13.5577 2.71268 13.5773C2.68264 13.5872 2.6598 13.5947 2.64453 13.5996C2.63667 13.6021 2.63229 13.6035 2.6305 13.6041C2.62934 13.6045 2.63108 13.6039 2.63436 13.6029C2.63583 13.6025 2.64017 13.6012 2.64601 13.5997C2.64894 13.5989 2.65416 13.5975 2.66077 13.5959C2.66554 13.5948 2.68001 13.5913 2.69884 13.5881L2.90273 14.7706ZM5.38736 13.0374C3.19231 10.8182 3.02812 7.54381 4.72864 5.16862L3.75293 4.47006C1.71905 7.31086 1.91966 11.238 4.53421 13.8813L5.38736 13.0374ZM3.71232 5.10346C4.65638 6.85939 6.43213 8.51946 8.41908 9.00236L8.70248 7.83631C7.12783 7.45361 5.59639 6.07368 4.76925 4.53521L3.71232 5.10346ZM9.16045 8.43917C9.19051 7.53038 9.51115 6.77907 10.0201 6.25899C10.5259 5.74217 11.2504 5.41934 12.1608 5.41934V4.21934C10.9503 4.21934 9.9093 4.6565 9.16245 5.41969C8.41881 6.1796 7.99985 7.22829 7.96111 8.3995L9.16045 8.43917ZM12.1608 5.41934C12.8053 5.41934 13.2775 5.54166 13.6399 5.73507C14.001 5.92779 14.2902 6.21082 14.5398 6.58955L15.5417 5.92912C15.205 5.41825 14.7762 4.98128 14.2049 4.6764C13.6349 4.37221 12.9603 4.21934 12.1608 4.21934V5.41934ZM15.0408 6.85934H17.2008V5.65934H15.0408V6.85934ZM16.7016 5.92652L15.2616 8.08652L16.26 8.75216L17.7 6.59216L16.7016 5.92652Z" fill="#3F6870"/>
</svg>
